<svg width="62" height="62" viewBox="0 0 62 62" fill="none" xmlns="http://www.w3.org/2000/svg">
  <rect width="62" height="62" rx="10.075" fill="white" />
  <path d="M27.0336 35.0802C27.0336 34.7194 27.1304 34.3653 27.314 34.0547L34.4915 21.9142C34.8541 21.3009 35.5136 20.9246 36.2261 20.9246L38.7792 20.9246C39.452 20.9246 39.9974 21.4701 39.9974 22.1429L39.9974 23.347C39.9974 23.3548 40.0038 23.3611 40.0116 23.3611C40.0194 23.3611 40.0258 23.3675 40.0258 23.3753L40.0258 28.0112C40.0258 29.124 40.9279 30.0262 42.0408 30.0262L44.1621 30.0262C45.275 30.0262 46.1771 30.9283 46.1771 32.0412L46.1771 39.0346C46.1771 40.1475 45.275 41.0496 44.1621 41.0496L41.0502 41.0496C38.2187 41.0494 35.9225 38.7541 35.9222 35.9227C35.9222 35.5297 35.4035 35.3881 35.2038 35.7266L32.5715 40.1894C32.2479 40.7382 31.6582 41.075 31.021 41.075L29.0486 41.075C27.9357 41.075 27.0336 40.1729 27.0336 39.06L27.0336 35.0802Z" fill="#B473FF" />
  <path d="M27.5073 20.925L24.6966 20.925C24.2216 20.925 23.782 21.1758 23.5403 21.5847L16.1679 34.0551C15.9843 34.3656 15.8874 34.7198 15.8874 35.0805L15.8874 39.7317C15.8874 40.4736 16.4888 41.075 17.2307 41.075L20.1351 41.075C20.6106 41.075 21.0506 40.8237 21.2922 40.4141L28.5712 28.0726C28.7541 27.7625 28.8506 27.409 28.8506 27.0489L28.8506 22.2683C28.8506 21.5264 28.2492 20.925 27.5073 20.925Z" fill="#B473FF" />
</svg>
